<svg xmlns="http://www.w3.org/2000/svg" xmlns:xlink="http://www.w3.org/1999/xlink" width="48" zoomAndPan="magnify" viewBox="0 0 36 36.000001" height="48" preserveAspectRatio="xMidYMid meet" version="1.0"><defs><g/><clipPath id="d0c41bab8a"><path d="M 0.488281 0 L 35.511719 0 L 35.511719 35.027344 L 0.488281 35.027344 Z M 0.488281 0 " clip-rule="nonzero"/></clipPath><clipPath id="45508c4a9f"><path d="M 18 0 C 8.328125 0 0.488281 7.839844 0.488281 17.511719 C 0.488281 27.1875 8.328125 35.027344 18 35.027344 C 27.671875 35.027344 35.511719 27.1875 35.511719 17.511719 C 35.511719 7.839844 27.671875 0 18 0 Z M 18 0 " clip-rule="nonzero"/></clipPath><clipPath id="0b0f660898"><path d="M 0.488281 0 L 35.511719 0 L 35.511719 35.027344 L 0.488281 35.027344 Z M 0.488281 0 " clip-rule="nonzero"/></clipPath><clipPath id="a9aa9ca8b0"><path d="M 18 0 C 8.328125 0 0.488281 7.839844 0.488281 17.511719 C 0.488281 27.1875 8.328125 35.027344 18 35.027344 C 27.671875 35.027344 35.511719 27.1875 35.511719 17.511719 C 35.511719 7.839844 27.671875 0 18 0 Z M 18 0 " clip-rule="nonzero"/></clipPath><clipPath id="49e6ddcb48"><rect x="0" width="36" y="0" height="36"/></clipPath><clipPath id="0b226d1309"><path d="M 11 12.554688 L 24.859375 12.554688 L 24.859375 22.773438 L 11 22.773438 Z M 11 12.554688 " clip-rule="nonzero"/></clipPath></defs><g clip-path="url(#d0c41bab8a)"><g clip-path="url(#45508c4a9f)"><g transform="matrix(1, 0, 0, 1, 0.000000000000000056, 0.000000000000010582)"><g clip-path="url(#49e6ddcb48)"><g clip-path="url(#0b0f660898)"><g clip-path="url(#a9aa9ca8b0)"><path fill="#ffffff" d="M 0.488281 0 L 35.511719 0 L 35.511719 35.027344 L 0.488281 35.027344 Z M 0.488281 0 " fill-opacity="1" fill-rule="nonzero"/></g></g></g></g></g></g><g clip-path="url(#0b226d1309)"><path fill="#000000" d="M 22.996094 12.988281 C 23 12.925781 23.113281 12.820312 23.167969 12.824219 C 23.375 12.839844 23.582031 13.316406 23.675781 13.492188 C 23.824219 13.515625 24.109375 13.597656 24.175781 13.75 C 24.199219 13.804688 24.257812 14.058594 24.265625 14.121094 C 24.289062 14.398438 24.242188 14.679688 24.195312 14.949219 C 24.433594 15.261719 24.660156 15.679688 24.730469 16.078125 C 24.855469 16.785156 24.308594 17.050781 23.714844 17.011719 L 23.011719 16.871094 C 22.957031 16.875 22.980469 17.066406 22.976562 17.121094 C 22.957031 17.292969 22.878906 17.488281 22.777344 17.621094 C 22.660156 17.769531 22.476562 17.835938 22.308594 17.890625 C 22.28125 18.070312 22.261719 18.25 22.210938 18.421875 C 22.148438 18.617188 22.039062 18.851562 21.828125 18.894531 C 21.824219 18.960938 21.832031 19.03125 21.828125 19.097656 C 21.808594 19.289062 21.777344 19.550781 21.707031 19.730469 C 21.605469 19.984375 21.507812 19.921875 21.3125 20.027344 C 21.136719 20.117188 20.898438 20.367188 20.800781 20.542969 C 20.714844 20.691406 20.757812 20.835938 20.75 21.003906 C 20.738281 21.242188 20.710938 21.496094 20.703125 21.734375 C 20.699219 21.882812 20.683594 22.132812 20.703125 22.269531 C 20.71875 22.386719 20.9375 22.542969 20.980469 22.660156 L 20.957031 22.71875 C 20.894531 22.773438 20.636719 22.6875 20.550781 22.675781 C 20.378906 22.65625 20.207031 22.644531 20.035156 22.625 C 19.988281 22.621094 19.851562 22.648438 19.835938 22.585938 C 19.820312 22.523438 19.859375 22.507812 19.859375 22.46875 C 19.890625 21.859375 19.871094 21.203125 19.882812 20.585938 C 19.882812 20.535156 19.925781 20.511719 19.871094 20.480469 C 19.589844 20.578125 19.285156 20.527344 19.03125 20.382812 C 18.851562 20.53125 18.6875 20.65625 18.441406 20.625 C 18.253906 20.597656 17.976562 20.277344 17.859375 20.289062 C 17.539062 20.433594 17.351562 20.734375 16.964844 20.699219 C 16.746094 20.679688 16.613281 20.53125 16.445312 20.410156 C 16.355469 20.433594 16.269531 20.492188 16.179688 20.515625 C 15.832031 20.613281 15.546875 20.429688 15.324219 20.160156 C 15.199219 20.296875 15.027344 20.410156 14.851562 20.449219 C 14.792969 20.464844 14.632812 20.484375 14.574219 20.480469 C 14.476562 20.472656 14.246094 20.386719 14.179688 20.410156 C 14 20.605469 13.773438 20.742188 13.507812 20.75 C 13.503906 20.882812 13.515625 21.015625 13.507812 21.152344 C 13.5 21.359375 13.46875 21.578125 13.460938 21.785156 C 13.453125 21.992188 13.445312 22.058594 13.460938 22.152344 C 13.472656 22.246094 13.710938 22.328125 13.742188 22.445312 C 13.714844 22.542969 13.324219 22.535156 13.234375 22.53125 C 13.195312 22.527344 13.160156 22.507812 13.121094 22.503906 C 12.953125 22.5 12.785156 22.511719 12.617188 22.503906 C 12.605469 22.492188 12.65625 22.3125 12.660156 22.273438 C 12.710938 21.917969 12.746094 21.527344 12.777344 21.175781 C 12.8125 20.820312 12.785156 20.964844 12.800781 20.863281 C 12.597656 20.652344 12.417969 20.421875 12.378906 20.117188 C 12.101562 19.992188 11.707031 19.675781 11.75 19.320312 C 11.761719 19.222656 11.824219 19.140625 11.863281 19.054688 C 11.539062 18.671875 11.222656 18.140625 11.441406 17.617188 C 11.199219 17.214844 10.996094 16.695312 11.226562 16.242188 C 11.285156 16.132812 11.367188 16.050781 11.464844 15.980469 C 11.15625 15.484375 11.269531 14.945312 11.867188 14.832031 C 11.953125 14.675781 12.007812 14.507812 12.121094 14.367188 C 12.40625 14.011719 12.839844 13.898438 13.261719 14.058594 C 13.445312 13.882812 13.582031 13.660156 13.867188 13.699219 C 13.980469 13.714844 14.117188 13.800781 14.242188 13.796875 C 14.523438 13.78125 14.707031 13.53125 15.011719 13.601562 C 15.09375 13.621094 15.203125 13.738281 15.25 13.746094 C 15.289062 13.75 15.546875 13.773438 15.578125 13.769531 C 15.621094 13.765625 15.644531 13.722656 15.683594 13.707031 C 15.839844 13.648438 16.042969 13.695312 16.191406 13.765625 C 16.269531 13.800781 16.328125 13.847656 16.398438 13.890625 C 16.722656 13.726562 17.117188 13.703125 17.382812 13.984375 C 17.71875 13.769531 18.15625 13.878906 18.507812 14.007812 C 18.824219 13.769531 19.265625 13.589844 19.585938 13.917969 C 19.773438 13.707031 20.066406 13.769531 20.308594 13.816406 C 20.570312 13.554688 20.933594 13.53125 21.28125 13.550781 C 21.316406 13.308594 21.4375 13.066406 21.679688 13 C 21.730469 12.988281 21.785156 13 21.824219 12.976562 C 21.878906 12.949219 22 12.804688 22.09375 12.75 C 22.449219 12.554688 22.71875 12.695312 22.957031 12.988281 Z M 22.996094 12.988281 " fill-opacity="1" fill-rule="nonzero"/></g><g fill="#000000" fill-opacity="1"><g transform="translate(17.367564, 17.14865)"><g><path d="M 0.28125 0.015625 C 0.238281 0.015625 0.203125 0.00390625 0.171875 -0.015625 C 0.140625 -0.0351562 0.113281 -0.0703125 0.09375 -0.125 C 0.0703125 -0.175781 0.0625 -0.234375 0.0625 -0.296875 C 0.0625 -0.367188 0.0703125 -0.425781 0.09375 -0.46875 C 0.113281 -0.519531 0.140625 -0.554688 0.171875 -0.578125 C 0.203125 -0.597656 0.238281 -0.609375 0.28125 -0.609375 C 0.332031 -0.609375 0.375 -0.597656 0.40625 -0.578125 C 0.445312 -0.554688 0.476562 -0.519531 0.5 -0.46875 C 0.519531 -0.425781 0.53125 -0.367188 0.53125 -0.296875 C 0.53125 -0.234375 0.519531 -0.175781 0.5 -0.125 C 0.476562 -0.0703125 0.445312 -0.0351562 0.40625 -0.015625 C 0.375 0.00390625 0.332031 0.015625 0.28125 0.015625 Z M 0.28125 -0.046875 C 0.332031 -0.046875 0.375 -0.0664062 0.40625 -0.109375 C 0.4375 -0.148438 0.453125 -0.210938 0.453125 -0.296875 C 0.453125 -0.390625 0.4375 -0.453125 0.40625 -0.484375 C 0.375 -0.515625 0.332031 -0.53125 0.28125 -0.53125 C 0.257812 -0.53125 0.234375 -0.523438 0.203125 -0.515625 C 0.179688 -0.503906 0.160156 -0.476562 0.140625 -0.4375 C 0.128906 -0.40625 0.125 -0.359375 0.125 -0.296875 C 0.125 -0.234375 0.128906 -0.1875 0.140625 -0.15625 C 0.160156 -0.125 0.179688 -0.0976562 0.203125 -0.078125 C 0.234375 -0.0546875 0.257812 -0.046875 0.28125 -0.046875 Z M 0.28125 -0.046875 "/></g></g></g><g fill="#000000" fill-opacity="1"><g transform="translate(17.907335, 17.14865)"><g><path d="M 0.109375 0 C 0.0976562 0 0.0859375 -0.00390625 0.078125 -0.015625 C 0.0664062 -0.0234375 0.0625 -0.0351562 0.0625 -0.046875 C 0.0625 -0.0546875 0.0664062 -0.0664062 0.078125 -0.078125 C 0.0859375 -0.0859375 0.0976562 -0.09375 0.109375 -0.09375 C 0.117188 -0.09375 0.128906 -0.0859375 0.140625 -0.078125 C 0.148438 -0.0664062 0.15625 -0.0546875 0.15625 -0.046875 C 0.15625 -0.0351562 0.148438 -0.0234375 0.140625 -0.015625 C 0.128906 -0.00390625 0.117188 0 0.109375 0 Z M 0.109375 0 "/></g></g></g><g fill="#000000" fill-opacity="1"><g transform="translate(18.1264, 17.14865)"><g><path d="M 0.25 0.015625 C 0.1875 0.015625 0.140625 0.00390625 0.109375 -0.015625 C 0.078125 -0.046875 0.0546875 -0.0820312 0.046875 -0.125 L 0.109375 -0.15625 C 0.117188 -0.132812 0.128906 -0.113281 0.140625 -0.09375 C 0.148438 -0.0820312 0.160156 -0.0703125 0.171875 -0.0625 C 0.191406 -0.0507812 0.21875 -0.046875 0.25 -0.046875 C 0.28125 -0.046875 0.304688 -0.0546875 0.328125 -0.078125 C 0.359375 -0.109375 0.375 -0.148438 0.375 -0.203125 C 0.375 -0.242188 0.363281 -0.273438 0.34375 -0.296875 C 0.320312 -0.328125 0.289062 -0.34375 0.25 -0.34375 C 0.21875 -0.34375 0.191406 -0.332031 0.171875 -0.3125 C 0.148438 -0.300781 0.132812 -0.285156 0.125 -0.265625 L 0.0625 -0.28125 L 0.078125 -0.609375 L 0.421875 -0.609375 L 0.421875 -0.53125 L 0.140625 -0.53125 L 0.140625 -0.34375 C 0.160156 -0.351562 0.175781 -0.363281 0.1875 -0.375 C 0.207031 -0.394531 0.238281 -0.40625 0.28125 -0.40625 C 0.3125 -0.40625 0.335938 -0.394531 0.359375 -0.375 C 0.390625 -0.363281 0.410156 -0.34375 0.421875 -0.3125 C 0.441406 -0.28125 0.453125 -0.242188 0.453125 -0.203125 C 0.453125 -0.148438 0.441406 -0.109375 0.421875 -0.078125 C 0.398438 -0.0546875 0.375 -0.0351562 0.34375 -0.015625 C 0.3125 0.00390625 0.28125 0.015625 0.25 0.015625 Z M 0.25 0.015625 "/></g></g></g></svg>